<?xml version="1.0" encoding="us-ascii" standalone="no"?><svg xmlns="http://www.w3.org/2000/svg" xmlns:xlink="http://www.w3.org/1999/xlink" contentStyleType="text/css" height="1053px" preserveAspectRatio="none" style="width:1498px;height:1053px;background:#FFFFFF;" version="1.1" viewBox="0 0 1498 1053" width="1498px" zoomAndPan="magnify"><defs/><g><text fill="#C9A84C" font-family="sans-serif" font-size="20" font-weight="bold" lengthAdjust="spacing" textLength="413.25" x="535.375" y="30.7617">&#10022; Fate of Yours &#8212; Database Schema (ERD)</text><!--class users--><g id="elem_users"><rect codeLine="35" fill="#0F0F1C" height="188.875" id="users" rx="2.5" ry="2.5" style="stroke:#C9A84C;stroke-width:0.5;" width="342" x="998" y="205.6563"/><rect fill="#1A1430" height="32" rx="2.5" ry="2.5" style="stroke:#1A1430;stroke-width:0.5;" width="342" x="998" y="205.6563"/><rect fill="#1A1430" height="2.5" style="stroke:#1A1430;stroke-width:0.5;" width="342" x="998" y="235.1563"/><rect codeLine="35" fill="none" height="188.875" id="users" rx="2.5" ry="2.5" style="stroke:#C9A84C;stroke-width:0.5;" width="342" x="998" y="205.6563"/><ellipse cx="1151.25" cy="221.6563" fill="#C9A84C" rx="11" ry="11" style="stroke:#181818;stroke-width:1.0;"/><path d="M1152.1719,219.0469 L1152.1719,225.7031 L1153.3281,225.7031 Q1153.9375,225.7031 1154.1875,225.9375 Q1154.4531,226.1719 1154.4531,226.5625 Q1154.4531,226.9375 1154.1875,227.1719 Q1153.9375,227.4063 1153.3281,227.4063 L1149.3438,227.4063 Q1148.7188,227.4063 1148.4531,227.1719 Q1148.2031,226.9375 1148.2031,226.5469 Q1148.2031,226.1719 1148.4531,225.9375 Q1148.7188,225.7031 1149.3438,225.7031 L1150.4688,225.7031 L1150.4688,219.0469 L1148.625,219.0469 L1148.625,220.6563 Q1148.625,221.2656 1148.3906,221.5313 Q1148.1563,221.7969 1147.7813,221.7969 Q1147.4063,221.7969 1147.1719,221.5313 Q1146.9375,221.2656 1146.9375,220.6563 L1146.9375,217.3438 L1155.75,217.3438 L1155.75,220.6563 Q1155.75,221.2656 1155.5,221.5313 Q1155.2656,221.7969 1154.8906,221.7969 Q1154.5156,221.7969 1154.2813,221.5313 Q1154.0469,221.2656 1154.0469,220.6563 L1154.0469,219.0469 L1152.1719,219.0469 Z " fill="#000000"/><text fill="#D4C5A9" font-family="Segoe UI" font-size="12" lengthAdjust="spacing" textLength="27" x="1171.75" y="226.625">users</text><line style="stroke:#C9A84C;stroke-width:0.5;" x1="999" x2="1339" y1="237.6563" y2="237.6563"/><ellipse cx="1009" cy="251.9609" fill="none" rx="3" ry="3" style="stroke:#038048;stroke-width:1.0;"/><text fill="#D4C5A9" font-family="sans-serif" font-size="14" lengthAdjust="spacing" text-decoration="underline" textLength="11" x="1018" y="256.1895">id</text><text fill="#D4C5A9" font-family="sans-serif" font-size="14" lengthAdjust="spacing" textLength="157" x="1077" y="256.1895">: UUID            &#171;PK, auto&#187;</text><line style="stroke:#C9A84C;stroke-width:1.0;" x1="999" x2="1339" y1="263.2656" y2="263.2656"/><text fill="#D4C5A9" font-family="sans-serif" font-size="14" lengthAdjust="spacing" textLength="318" x="1004" y="281.7988">email     : VARCHAR(255)    &#171;UNIQUE, NOT NULL&#187;</text><text fill="#D4C5A9" font-family="sans-serif" font-size="14" lengthAdjust="spacing" textLength="330" x="1004" y="299.4082">password  : VARCHAR(255)    &#171;NOT NULL, hashed&#187;</text><text fill="#D4C5A9" font-family="sans-serif" font-size="14" lengthAdjust="spacing" textLength="283" x="1004" y="317.0176">dob [NULL]       : DATE            &#171;date of birth&#187;</text><text fill="#D4C5A9" font-family="sans-serif" font-size="14" lengthAdjust="spacing" textLength="291" x="1004" y="334.627">language  : ENUM('EN','VI','ZH')  &#171;default 'EN'&#187;</text><text fill="#D4C5A9" font-family="sans-serif" font-size="14" lengthAdjust="spacing" textLength="267" x="1004" y="352.2363">is_admin  : BOOLEAN         &#171;default false&#187;</text><text fill="#D4C5A9" font-family="sans-serif" font-size="14" lengthAdjust="spacing" textLength="290" x="1004" y="369.8457">created_at: TIMESTAMPTZ     &#171;default now()&#187;</text><text fill="#D4C5A9" font-family="sans-serif" font-size="14" lengthAdjust="spacing" textLength="289" x="1004" y="387.4551">updated_at: TIMESTAMPTZ     &#171;auto-update&#187;</text></g><!--class categories--><g id="elem_categories"><rect codeLine="50" fill="#0F0F1C" height="224.0938" id="categories" rx="2.5" ry="2.5" style="stroke:#C9A84C;stroke-width:0.5;" width="307" x="547.5" y="188.1563"/><rect fill="#1A1430" height="32" rx="2.5" ry="2.5" style="stroke:#1A1430;stroke-width:0.5;" width="307" x="547.5" y="188.1563"/><rect fill="#1A1430" height="2.5" style="stroke:#1A1430;stroke-width:0.5;" width="307" x="547.5" y="217.6563"/><rect codeLine="50" fill="none" height="224.0938" id="categories" rx="2.5" ry="2.5" style="stroke:#C9A84C;stroke-width:0.5;" width="307" x="547.5" y="188.1563"/><ellipse cx="669.75" cy="204.1563" fill="#C9A84C" rx="11" ry="11" style="stroke:#181818;stroke-width:1.0;"/><path d="M670.6719,201.5469 L670.6719,208.2031 L671.8281,208.2031 Q672.4375,208.2031 672.6875,208.4375 Q672.9531,208.6719 672.9531,209.0625 Q672.9531,209.4375 672.6875,209.6719 Q672.4375,209.9063 671.8281,209.9063 L667.8438,209.9063 Q667.2188,209.9063 666.9531,209.6719 Q666.7031,209.4375 666.7031,209.0469 Q666.7031,208.6719 666.9531,208.4375 Q667.2188,208.2031 667.8438,208.2031 L668.9688,208.2031 L668.9688,201.5469 L667.125,201.5469 L667.125,203.1563 Q667.125,203.7656 666.8906,204.0313 Q666.6563,204.2969 666.2813,204.2969 Q665.9063,204.2969 665.6719,204.0313 Q665.4375,203.7656 665.4375,203.1563 L665.4375,199.8438 L674.25,199.8438 L674.25,203.1563 Q674.25,203.7656 674,204.0313 Q673.7656,204.2969 673.3906,204.2969 Q673.0156,204.2969 672.7813,204.0313 Q672.5469,203.7656 672.5469,203.1563 L672.5469,201.5469 L670.6719,201.5469 Z " fill="#000000"/><text fill="#D4C5A9" font-family="Segoe UI" font-size="12" lengthAdjust="spacing" textLength="54" x="690.25" y="209.125">categories</text><line style="stroke:#C9A84C;stroke-width:0.5;" x1="548.5" x2="853.5" y1="220.1563" y2="220.1563"/><ellipse cx="558.5" cy="234.4609" fill="#84BE84" rx="3" ry="3" style="stroke:#038048;stroke-width:1.0;"/><text fill="#D4C5A9" font-family="sans-serif" font-size="14" lengthAdjust="spacing" text-decoration="underline" textLength="11" x="567.5" y="238.6895">id</text><text fill="#D4C5A9" font-family="sans-serif" font-size="14" lengthAdjust="spacing" textLength="222" x="626.5" y="238.6895">: VARCHAR(30)     &#171;PK, e.g. 'love'&#187;</text><line style="stroke:#C9A84C;stroke-width:1.0;" x1="548.5" x2="853.5" y1="245.7656" y2="245.7656"/><text fill="#D4C5A9" font-family="sans-serif" font-size="14" lengthAdjust="spacing" textLength="162" x="553.5" y="264.2988">label_en  : VARCHAR(60)</text><text fill="#D4C5A9" font-family="sans-serif" font-size="14" lengthAdjust="spacing" textLength="156" x="553.5" y="281.9082">label_vi  : VARCHAR(60)</text><text fill="#D4C5A9" font-family="sans-serif" font-size="14" lengthAdjust="spacing" textLength="160" x="553.5" y="299.5176">label_zh  : VARCHAR(60)</text><text fill="#D4C5A9" font-family="sans-serif" font-size="14" lengthAdjust="spacing" textLength="280" x="553.5" y="317.127">icon      : VARCHAR(4)      &#171;unicode symbol&#187;</text><text fill="#D4C5A9" font-family="sans-serif" font-size="14" lengthAdjust="spacing" textLength="109" x="553.5" y="334.7363">desc_en   : TEXT</text><text fill="#D4C5A9" font-family="sans-serif" font-size="14" lengthAdjust="spacing" textLength="103" x="553.5" y="352.3457">desc_vi   : TEXT</text><text fill="#D4C5A9" font-family="sans-serif" font-size="14" lengthAdjust="spacing" textLength="107" x="553.5" y="369.9551">desc_zh   : TEXT</text><text fill="#D4C5A9" font-family="sans-serif" font-size="14" lengthAdjust="spacing" textLength="262" x="553.5" y="387.5645">accent_color: VARCHAR(9)    &#171;hex color&#187;</text><text fill="#D4C5A9" font-family="sans-serif" font-size="14" lengthAdjust="spacing" textLength="140" x="553.5" y="405.1738">sort_order: SMALLINT</text></g><!--class category_questions--><g id="elem_category_questions"><rect codeLine="67" fill="#0F0F1C" height="153.6563" id="category_questions" rx="2.5" ry="2.5" style="stroke:#C9A84C;stroke-width:0.5;" width="361" x="412.5" y="516.1563"/><rect fill="#1A1430" height="32" rx="2.5" ry="2.5" style="stroke:#1A1430;stroke-width:0.5;" width="361" x="412.5" y="516.1563"/><rect fill="#1A1430" height="2.5" style="stroke:#1A1430;stroke-width:0.5;" width="361" x="412.5" y="545.6563"/><rect codeLine="67" fill="none" height="153.6563" id="category_questions" rx="2.5" ry="2.5" style="stroke:#C9A84C;stroke-width:0.5;" width="361" x="412.5" y="516.1563"/><ellipse cx="537.75" cy="532.1563" fill="#C9A84C" rx="11" ry="11" style="stroke:#181818;stroke-width:1.0;"/><path d="M538.6719,529.5469 L538.6719,536.2031 L539.8281,536.2031 Q540.4375,536.2031 540.6875,536.4375 Q540.9531,536.6719 540.9531,537.0625 Q540.9531,537.4375 540.6875,537.6719 Q540.4375,537.9063 539.8281,537.9063 L535.8438,537.9063 Q535.2188,537.9063 534.9531,537.6719 Q534.7031,537.4375 534.7031,537.0469 Q534.7031,536.6719 534.9531,536.4375 Q535.2188,536.2031 535.8438,536.2031 L536.9688,536.2031 L536.9688,529.5469 L535.125,529.5469 L535.125,531.1563 Q535.125,531.7656 534.8906,532.0313 Q534.6563,532.2969 534.2813,532.2969 Q533.9063,532.2969 533.6719,532.0313 Q533.4375,531.7656 533.4375,531.1563 L533.4375,527.8438 L542.25,527.8438 L542.25,531.1563 Q542.25,531.7656 542,532.0313 Q541.7656,532.2969 541.3906,532.2969 Q541.0156,532.2969 540.7813,532.0313 Q540.5469,531.7656 540.5469,531.1563 L540.5469,529.5469 L538.6719,529.5469 Z " fill="#000000"/><text fill="#D4C5A9" font-family="Segoe UI" font-size="12" lengthAdjust="spacing" textLength="102" x="558.25" y="537.125">category_questions</text><line style="stroke:#C9A84C;stroke-width:0.5;" x1="413.5" x2="772.5" y1="548.1563" y2="548.1563"/><ellipse cx="423.5" cy="562.4609" fill="none" rx="3" ry="3" style="stroke:#038048;stroke-width:1.0;"/><text fill="#D4C5A9" font-family="sans-serif" font-size="14" lengthAdjust="spacing" text-decoration="underline" textLength="11" x="432.5" y="566.6895">id</text><text fill="#D4C5A9" font-family="sans-serif" font-size="14" lengthAdjust="spacing" textLength="121" x="491.5" y="566.6895">: UUID            &#171;PK&#187;</text><line style="stroke:#C9A84C;stroke-width:1.0;" x1="413.5" x2="772.5" y1="573.7656" y2="573.7656"/><text fill="#D4C5A9" font-family="sans-serif" font-size="14" font-style="italic" lengthAdjust="spacing" textLength="74" x="418.5" y="592.2988">category_id</text><text fill="#D4C5A9" font-family="sans-serif" font-size="14" lengthAdjust="spacing" textLength="255" x="512.5" y="592.2988">: VARCHAR(30)     &#171;FK &#8594; categories.id&#187;</text><text fill="#D4C5A9" font-family="sans-serif" font-size="14" lengthAdjust="spacing" textLength="121" x="418.5" y="609.9082">question_en: TEXT</text><text fill="#D4C5A9" font-family="sans-serif" font-size="14" lengthAdjust="spacing" textLength="115" x="418.5" y="627.5176">question_vi: TEXT</text><text fill="#D4C5A9" font-family="sans-serif" font-size="14" lengthAdjust="spacing" textLength="119" x="418.5" y="645.127">question_zh: TEXT</text><text fill="#D4C5A9" font-family="sans-serif" font-size="14" lengthAdjust="spacing" textLength="140" x="418.5" y="662.7363">sort_order: SMALLINT</text></g><!--class tarot_cards--><g id="elem_tarot_cards"><rect codeLine="80" fill="#0F0F1C" height="206.4844" id="tarot_cards" rx="2.5" ry="2.5" style="stroke:#C9A84C;stroke-width:0.5;" width="370" x="7" y="490.1563"/><rect fill="#1A1430" height="32" rx="2.5" ry="2.5" style="stroke:#1A1430;stroke-width:0.5;" width="370" x="7" y="490.1563"/><rect fill="#1A1430" height="2.5" style="stroke:#1A1430;stroke-width:0.5;" width="370" x="7" y="519.6563"/><rect codeLine="80" fill="none" height="206.4844" id="tarot_cards" rx="2.5" ry="2.5" style="stroke:#C9A84C;stroke-width:0.5;" width="370" x="7" y="490.1563"/><ellipse cx="158.75" cy="506.1563" fill="#C9A84C" rx="11" ry="11" style="stroke:#181818;stroke-width:1.0;"/><path d="M159.6719,503.5469 L159.6719,510.2031 L160.8281,510.2031 Q161.4375,510.2031 161.6875,510.4375 Q161.9531,510.6719 161.9531,511.0625 Q161.9531,511.4375 161.6875,511.6719 Q161.4375,511.9063 160.8281,511.9063 L156.8438,511.9063 Q156.2188,511.9063 155.9531,511.6719 Q155.7031,511.4375 155.7031,511.0469 Q155.7031,510.6719 155.9531,510.4375 Q156.2188,510.2031 156.8438,510.2031 L157.9688,510.2031 L157.9688,503.5469 L156.125,503.5469 L156.125,505.1563 Q156.125,505.7656 155.8906,506.0313 Q155.6563,506.2969 155.2813,506.2969 Q154.9063,506.2969 154.6719,506.0313 Q154.4375,505.7656 154.4375,505.1563 L154.4375,501.8438 L163.25,501.8438 L163.25,505.1563 Q163.25,505.7656 163,506.0313 Q162.7656,506.2969 162.3906,506.2969 Q162.0156,506.2969 161.7813,506.0313 Q161.5469,505.7656 161.5469,505.1563 L161.5469,503.5469 L159.6719,503.5469 Z " fill="#000000"/><text fill="#D4C5A9" font-family="Segoe UI" font-size="12" lengthAdjust="spacing" textLength="58" x="179.25" y="511.125">tarot_cards</text><line style="stroke:#C9A84C;stroke-width:0.5;" x1="8" x2="376" y1="522.1563" y2="522.1563"/><ellipse cx="18" cy="536.4609" fill="none" rx="3" ry="3" style="stroke:#038048;stroke-width:1.0;"/><text fill="#D4C5A9" font-family="sans-serif" font-size="14" lengthAdjust="spacing" text-decoration="underline" textLength="11" x="27" y="540.6895">id</text><text fill="#D4C5A9" font-family="sans-serif" font-size="14" lengthAdjust="spacing" textLength="177" x="86" y="540.6895">: SMALLINT        &#171;PK, 0-77&#187;</text><line style="stroke:#C9A84C;stroke-width:1.0;" x1="8" x2="376" y1="547.7656" y2="547.7656"/><text fill="#D4C5A9" font-family="sans-serif" font-size="14" lengthAdjust="spacing" textLength="171" x="13" y="566.2988">name_en   : VARCHAR(80)</text><text fill="#D4C5A9" font-family="sans-serif" font-size="14" lengthAdjust="spacing" textLength="165" x="13" y="583.9082">name_vi   : VARCHAR(80)</text><text fill="#D4C5A9" font-family="sans-serif" font-size="14" lengthAdjust="spacing" textLength="169" x="13" y="601.5176">name_zh   : VARCHAR(80)</text><text fill="#D4C5A9" font-family="sans-serif" font-size="14" lengthAdjust="spacing" textLength="358" x="13" y="619.127">suit      : ENUM('major','wands','cups','swords','pentacles')</text><text fill="#D4C5A9" font-family="sans-serif" font-size="14" lengthAdjust="spacing" textLength="242" x="13" y="636.7363">symbol    : VARCHAR(4)      &#171;unicode&#187;</text><text fill="#D4C5A9" font-family="sans-serif" font-size="14" lengthAdjust="spacing" textLength="121" x="13" y="654.3457">meaning_en: TEXT</text><text fill="#D4C5A9" font-family="sans-serif" font-size="14" lengthAdjust="spacing" textLength="115" x="13" y="671.9551">meaning_vi: TEXT</text><text fill="#D4C5A9" font-family="sans-serif" font-size="14" lengthAdjust="spacing" textLength="119" x="13" y="689.5645">meaning_zh: TEXT</text></g><!--class readings--><g id="elem_readings"><rect codeLine="96" fill="#0F0F1C" height="153.6563" id="readings" rx="2.5" ry="2.5" style="stroke:#C9A84C;stroke-width:0.5;" width="361" x="808.5" y="516.1563"/><rect fill="#1A1430" height="32" rx="2.5" ry="2.5" style="stroke:#1A1430;stroke-width:0.5;" width="361" x="808.5" y="516.1563"/><rect fill="#1A1430" height="2.5" style="stroke:#1A1430;stroke-width:0.5;" width="361" x="808.5" y="545.6563"/><rect codeLine="96" fill="none" height="153.6563" id="readings" rx="2.5" ry="2.5" style="stroke:#C9A84C;stroke-width:0.5;" width="361" x="808.5" y="516.1563"/><ellipse cx="962.25" cy="532.1563" fill="#C9A84C" rx="11" ry="11" style="stroke:#181818;stroke-width:1.0;"/><path d="M963.1719,529.5469 L963.1719,536.2031 L964.3281,536.2031 Q964.9375,536.2031 965.1875,536.4375 Q965.4531,536.6719 965.4531,537.0625 Q965.4531,537.4375 965.1875,537.6719 Q964.9375,537.9063 964.3281,537.9063 L960.3438,537.9063 Q959.7188,537.9063 959.4531,537.6719 Q959.2031,537.4375 959.2031,537.0469 Q959.2031,536.6719 959.4531,536.4375 Q959.7188,536.2031 960.3438,536.2031 L961.4688,536.2031 L961.4688,529.5469 L959.625,529.5469 L959.625,531.1563 Q959.625,531.7656 959.3906,532.0313 Q959.1563,532.2969 958.7813,532.2969 Q958.4063,532.2969 958.1719,532.0313 Q957.9375,531.7656 957.9375,531.1563 L957.9375,527.8438 L966.75,527.8438 L966.75,531.1563 Q966.75,531.7656 966.5,532.0313 Q966.2656,532.2969 965.8906,532.2969 Q965.5156,532.2969 965.2813,532.0313 Q965.0469,531.7656 965.0469,531.1563 L965.0469,529.5469 L963.1719,529.5469 Z " fill="#000000"/><text fill="#D4C5A9" font-family="Segoe UI" font-size="12" lengthAdjust="spacing" textLength="45" x="982.75" y="537.125">readings</text><line style="stroke:#C9A84C;stroke-width:0.5;" x1="809.5" x2="1168.5" y1="548.1563" y2="548.1563"/><ellipse cx="819.5" cy="562.4609" fill="none" rx="3" ry="3" style="stroke:#038048;stroke-width:1.0;"/><text fill="#D4C5A9" font-family="sans-serif" font-size="14" lengthAdjust="spacing" text-decoration="underline" textLength="11" x="828.5" y="566.6895">id</text><text fill="#D4C5A9" font-family="sans-serif" font-size="14" lengthAdjust="spacing" textLength="121" x="887.5" y="566.6895">: UUID            &#171;PK&#187;</text><line style="stroke:#C9A84C;stroke-width:1.0;" x1="809.5" x2="1168.5" y1="573.7656" y2="573.7656"/><text fill="#D4C5A9" font-family="sans-serif" font-size="14" font-style="italic" lengthAdjust="spacing" textLength="47" x="814.5" y="592.2988">user_id</text><text fill="#D4C5A9" font-family="sans-serif" font-size="14" lengthAdjust="spacing" textLength="191" x="897.5" y="592.2988">: UUID            &#171;FK &#8594; users.id&#187;</text><text fill="#D4C5A9" font-family="sans-serif" font-size="14" font-style="italic" lengthAdjust="spacing" textLength="74" x="814.5" y="609.9082">category_id</text><text fill="#D4C5A9" font-family="sans-serif" font-size="14" lengthAdjust="spacing" textLength="255" x="908.5" y="609.9082">: VARCHAR(30)     &#171;FK &#8594; categories.id&#187;</text><text fill="#D4C5A9" font-family="sans-serif" font-size="14" lengthAdjust="spacing" textLength="307" x="814.5" y="627.5176">question  : TEXT            &#171;user's actual question&#187;</text><text fill="#D4C5A9" font-family="sans-serif" font-size="14" lengthAdjust="spacing" textLength="196" x="814.5" y="645.127">language  : ENUM('EN','VI','ZH')</text><text fill="#D4C5A9" font-family="sans-serif" font-size="14" lengthAdjust="spacing" textLength="290" x="814.5" y="662.7363">created_at: TIMESTAMPTZ     &#171;default now()&#187;</text></g><!--class reading_cards--><g id="elem_reading_cards"><rect codeLine="109" fill="#0F0F1C" height="136.0469" id="reading_cards" rx="2.5" ry="2.5" style="stroke:#C9A84C;stroke-width:0.5;" width="377" x="209.5" y="774.1563"/><rect fill="#1A1430" height="32" rx="2.5" ry="2.5" style="stroke:#1A1430;stroke-width:0.5;" width="377" x="209.5" y="774.1563"/><rect fill="#1A1430" height="2.5" style="stroke:#1A1430;stroke-width:0.5;" width="377" x="209.5" y="803.6563"/><rect codeLine="109" fill="none" height="136.0469" id="reading_cards" rx="2.5" ry="2.5" style="stroke:#C9A84C;stroke-width:0.5;" width="377" x="209.5" y="774.1563"/><ellipse cx="357.25" cy="790.1563" fill="#C9A84C" rx="11" ry="11" style="stroke:#181818;stroke-width:1.0;"/><path d="M358.1719,787.5469 L358.1719,794.2031 L359.3281,794.2031 Q359.9375,794.2031 360.1875,794.4375 Q360.4531,794.6719 360.4531,795.0625 Q360.4531,795.4375 360.1875,795.6719 Q359.9375,795.9063 359.3281,795.9063 L355.3438,795.9063 Q354.7188,795.9063 354.4531,795.6719 Q354.2031,795.4375 354.2031,795.0469 Q354.2031,794.6719 354.4531,794.4375 Q354.7188,794.2031 355.3438,794.2031 L356.4688,794.2031 L356.4688,787.5469 L354.625,787.5469 L354.625,789.1563 Q354.625,789.7656 354.3906,790.0313 Q354.1563,790.2969 353.7813,790.2969 Q353.4063,790.2969 353.1719,790.0313 Q352.9375,789.7656 352.9375,789.1563 L352.9375,785.8438 L361.75,785.8438 L361.75,789.1563 Q361.75,789.7656 361.5,790.0313 Q361.2656,790.2969 360.8906,790.2969 Q360.5156,790.2969 360.2813,790.0313 Q360.0469,789.7656 360.0469,789.1563 L360.0469,787.5469 L358.1719,787.5469 Z " fill="#000000"/><text fill="#D4C5A9" font-family="Segoe UI" font-size="12" lengthAdjust="spacing" textLength="73" x="377.75" y="795.125">reading_cards</text><line style="stroke:#C9A84C;stroke-width:0.5;" x1="210.5" x2="585.5" y1="806.1563" y2="806.1563"/><ellipse cx="220.5" cy="820.4609" fill="none" rx="3" ry="3" style="stroke:#038048;stroke-width:1.0;"/><text fill="#D4C5A9" font-family="sans-serif" font-size="14" lengthAdjust="spacing" text-decoration="underline" textLength="11" x="229.5" y="824.6895">id</text><text fill="#D4C5A9" font-family="sans-serif" font-size="14" lengthAdjust="spacing" textLength="121" x="288.5" y="824.6895">: UUID            &#171;PK&#187;</text><line style="stroke:#C9A84C;stroke-width:1.0;" x1="210.5" x2="585.5" y1="831.7656" y2="831.7656"/><text fill="#D4C5A9" font-family="sans-serif" font-size="14" font-style="italic" lengthAdjust="spacing" textLength="67" x="215.5" y="850.2988">reading_id</text><text fill="#D4C5A9" font-family="sans-serif" font-size="14" lengthAdjust="spacing" textLength="211" x="306.5" y="850.2988">: UUID            &#171;FK &#8594; readings.id&#187;</text><text fill="#D4C5A9" font-family="sans-serif" font-size="14" font-style="italic" lengthAdjust="spacing" textLength="47" x="215.5" y="867.9082">card_id</text><text fill="#D4C5A9" font-family="sans-serif" font-size="14" lengthAdjust="spacing" textLength="247" x="298.5" y="867.9082">: SMALLINT        &#171;FK &#8594; tarot_cards.id&#187;</text><text fill="#D4C5A9" font-family="sans-serif" font-size="14" lengthAdjust="spacing" textLength="251" x="215.5" y="885.5176">position  : ENUM('past','present','future')</text><text fill="#D4C5A9" font-family="sans-serif" font-size="14" lengthAdjust="spacing" textLength="365" x="215.5" y="903.127">position_order: SMALLINT    &#171;0=past,1=present,2=future&#187;</text></g><!--class reading_interpretations--><g id="elem_reading_interpretations"><rect codeLine="121" fill="#0F0F1C" height="136.0469" id="reading_interpretations" rx="2.5" ry="2.5" style="stroke:#C9A84C;stroke-width:0.5;" width="372" x="635" y="774.1563"/><rect fill="#1A1430" height="32" rx="2.5" ry="2.5" style="stroke:#1A1430;stroke-width:0.5;" width="372" x="635" y="774.1563"/><rect fill="#1A1430" height="2.5" style="stroke:#1A1430;stroke-width:0.5;" width="372" x="635" y="803.6563"/><rect codeLine="121" fill="none" height="136.0469" id="reading_interpretations" rx="2.5" ry="2.5" style="stroke:#C9A84C;stroke-width:0.5;" width="372" x="635" y="774.1563"/><ellipse cx="755.75" cy="790.1563" fill="#C9A84C" rx="11" ry="11" style="stroke:#181818;stroke-width:1.0;"/><path d="M756.6719,787.5469 L756.6719,794.2031 L757.8281,794.2031 Q758.4375,794.2031 758.6875,794.4375 Q758.9531,794.6719 758.9531,795.0625 Q758.9531,795.4375 758.6875,795.6719 Q758.4375,795.9063 757.8281,795.9063 L753.8438,795.9063 Q753.2188,795.9063 752.9531,795.6719 Q752.7031,795.4375 752.7031,795.0469 Q752.7031,794.6719 752.9531,794.4375 Q753.2188,794.2031 753.8438,794.2031 L754.9688,794.2031 L754.9688,787.5469 L753.125,787.5469 L753.125,789.1563 Q753.125,789.7656 752.8906,790.0313 Q752.6563,790.2969 752.2813,790.2969 Q751.9063,790.2969 751.6719,790.0313 Q751.4375,789.7656 751.4375,789.1563 L751.4375,785.8438 L760.25,785.8438 L760.25,789.1563 Q760.25,789.7656 760,790.0313 Q759.7656,790.2969 759.3906,790.2969 Q759.0156,790.2969 758.7813,790.0313 Q758.5469,789.7656 758.5469,789.1563 L758.5469,787.5469 L756.6719,787.5469 Z " fill="#000000"/><text fill="#D4C5A9" font-family="Segoe UI" font-size="12" lengthAdjust="spacing" textLength="122" x="776.25" y="795.125">reading_interpretations</text><line style="stroke:#C9A84C;stroke-width:0.5;" x1="636" x2="1006" y1="806.1563" y2="806.1563"/><ellipse cx="646" cy="820.4609" fill="none" rx="3" ry="3" style="stroke:#038048;stroke-width:1.0;"/><text fill="#D4C5A9" font-family="sans-serif" font-size="14" lengthAdjust="spacing" text-decoration="underline" textLength="11" x="655" y="824.6895">id</text><text fill="#D4C5A9" font-family="sans-serif" font-size="14" lengthAdjust="spacing" textLength="121" x="714" y="824.6895">: UUID            &#171;PK&#187;</text><line style="stroke:#C9A84C;stroke-width:1.0;" x1="636" x2="1006" y1="831.7656" y2="831.7656"/><text fill="#D4C5A9" font-family="sans-serif" font-size="14" font-style="italic" lengthAdjust="spacing" textLength="67" x="641" y="850.2988">reading_id</text><text fill="#D4C5A9" font-family="sans-serif" font-size="14" lengthAdjust="spacing" textLength="269" x="732" y="850.2988">: UUID            &#171;FK &#8594; readings.id, UNIQUE&#187;</text><text fill="#D4C5A9" font-family="sans-serif" font-size="14" lengthAdjust="spacing" textLength="325" x="641" y="867.9082">content   : TEXT            &#171;generated markdown text&#187;</text><text fill="#D4C5A9" font-family="sans-serif" font-size="14" lengthAdjust="spacing" textLength="303" x="641" y="885.5176">model_ver : VARCHAR(50)     &#171;AI version used&#187;</text><text fill="#D4C5A9" font-family="sans-serif" font-size="14" lengthAdjust="spacing" textLength="172" x="641" y="903.127">created_at: TIMESTAMPTZ</text></g><!--class admin_sessions--><g id="elem_admin_sessions"><rect codeLine="133" fill="#0F0F1C" height="136.0469" id="admin_sessions" rx="2.5" ry="2.5" style="stroke:#C9A84C;stroke-width:0.5;" width="286" x="1205" y="525.1563"/><rect fill="#1A1430" height="32" rx="2.5" ry="2.5" style="stroke:#1A1430;stroke-width:0.5;" width="286" x="1205" y="525.1563"/><rect fill="#1A1430" height="2.5" style="stroke:#1A1430;stroke-width:0.5;" width="286" x="1205" y="554.6563"/><rect codeLine="133" fill="none" height="136.0469" id="admin_sessions" rx="2.5" ry="2.5" style="stroke:#C9A84C;stroke-width:0.5;" width="286" x="1205" y="525.1563"/><ellipse cx="1302.75" cy="541.1563" fill="#C9A84C" rx="11" ry="11" style="stroke:#181818;stroke-width:1.0;"/><path d="M1303.6719,538.5469 L1303.6719,545.2031 L1304.8281,545.2031 Q1305.4375,545.2031 1305.6875,545.4375 Q1305.9531,545.6719 1305.9531,546.0625 Q1305.9531,546.4375 1305.6875,546.6719 Q1305.4375,546.9063 1304.8281,546.9063 L1300.8438,546.9063 Q1300.2188,546.9063 1299.9531,546.6719 Q1299.7031,546.4375 1299.7031,546.0469 Q1299.7031,545.6719 1299.9531,545.4375 Q1300.2188,545.2031 1300.8438,545.2031 L1301.9688,545.2031 L1301.9688,538.5469 L1300.125,538.5469 L1300.125,540.1563 Q1300.125,540.7656 1299.8906,541.0313 Q1299.6563,541.2969 1299.2813,541.2969 Q1298.9063,541.2969 1298.6719,541.0313 Q1298.4375,540.7656 1298.4375,540.1563 L1298.4375,536.8438 L1307.25,536.8438 L1307.25,540.1563 Q1307.25,540.7656 1307,541.0313 Q1306.7656,541.2969 1306.3906,541.2969 Q1306.0156,541.2969 1305.7813,541.0313 Q1305.5469,540.7656 1305.5469,540.1563 L1305.5469,538.5469 L1303.6719,538.5469 Z " fill="#000000"/><text fill="#D4C5A9" font-family="Segoe UI" font-size="12" lengthAdjust="spacing" textLength="82" x="1323.25" y="546.125">admin_sessions</text><line style="stroke:#C9A84C;stroke-width:0.5;" x1="1206" x2="1490" y1="557.1563" y2="557.1563"/><ellipse cx="1216" cy="571.4609" fill="none" rx="3" ry="3" style="stroke:#038048;stroke-width:1.0;"/><text fill="#D4C5A9" font-family="sans-serif" font-size="14" lengthAdjust="spacing" text-decoration="underline" textLength="11" x="1225" y="575.6895">id</text><text fill="#D4C5A9" font-family="sans-serif" font-size="14" lengthAdjust="spacing" textLength="121" x="1284" y="575.6895">: UUID            &#171;PK&#187;</text><line style="stroke:#C9A84C;stroke-width:1.0;" x1="1206" x2="1490" y1="582.7656" y2="582.7656"/><text fill="#D4C5A9" font-family="sans-serif" font-size="14" font-style="italic" lengthAdjust="spacing" textLength="47" x="1211" y="601.2988">user_id</text><text fill="#D4C5A9" font-family="sans-serif" font-size="14" lengthAdjust="spacing" textLength="191" x="1294" y="601.2988">: UUID            &#171;FK &#8594; users.id&#187;</text><text fill="#D4C5A9" font-family="sans-serif" font-size="14" lengthAdjust="spacing" textLength="108" x="1211" y="618.9082">ip_address: INET</text><text fill="#D4C5A9" font-family="sans-serif" font-size="14" lengthAdjust="spacing" textLength="172" x="1211" y="636.5176">created_at: TIMESTAMPTZ</text><text fill="#D4C5A9" font-family="sans-serif" font-size="14" lengthAdjust="spacing" textLength="215" x="1211" y="654.127">expires_at [NULL]: TIMESTAMPTZ</text></g><g id="elem_GMN17"><path d="M1059.5,52.1563 L1059.5,127.5625 A0,0 0 0 0 1059.5,127.5625 L1165,127.5625 L1169,205.4163 L1173,127.5625 L1278.5,127.5625 A0,0 0 0 0 1278.5,127.5625 L1278.5,62.1563 L1268.5,52.1563 L1059.5,52.1563 A0,0 0 0 0 1059.5,52.1563 " fill="#13111E" style="stroke:#8B5CF6;stroke-width:0.5;"/><path d="M1268.5,52.1563 L1268.5,62.1563 L1278.5,62.1563 L1268.5,52.1563 " fill="#13111E" style="stroke:#8B5CF6;stroke-width:0.5;"/><text fill="#C9A84C" font-family="sans-serif" font-size="13" font-weight="bold" lengthAdjust="spacing" textLength="92" x="1065.5" y="70.6514">Authentication</text><text fill="#A89AC0" font-family="sans-serif" font-size="13" lengthAdjust="spacing" textLength="161" x="1065.5" y="87.0029">Password is bcrypt-hashed.</text><text fill="#A89AC0" font-family="sans-serif" font-size="13" lengthAdjust="spacing" textLength="182" x="1065.5" y="103.3545">Currently stored in localStorage</text><text fill="#A89AC0" font-family="sans-serif" font-size="13" lengthAdjust="spacing" textLength="198" x="1065.5" y="119.7061">(dev). Production: Supabase Auth.</text></g><g id="elem_GMN20"><path d="M102.5,238.1563 L102.5,362.6172 A0,0 0 0 0 102.5,362.6172 L188,362.6172 L192,489.9963 L196,362.6172 L281.5,362.6172 A0,0 0 0 0 281.5,362.6172 L281.5,248.1563 L271.5,238.1563 L102.5,238.1563 A0,0 0 0 0 102.5,238.1563 " fill="#13111E" style="stroke:#8B5CF6;stroke-width:0.5;"/><path d="M271.5,238.1563 L271.5,248.1563 L281.5,248.1563 L271.5,238.1563 " fill="#13111E" style="stroke:#8B5CF6;stroke-width:0.5;"/><text fill="#C9A84C" font-family="sans-serif" font-size="13" font-weight="bold" lengthAdjust="spacing" textLength="106" x="108.5" y="256.6514">Static Seed Data</text><text fill="#A89AC0" font-family="sans-serif" font-size="13" lengthAdjust="spacing" textLength="83" x="108.5" y="273.0029">78 cards total:</text><text fill="#A89AC0" font-family="sans-serif" font-size="13" lengthAdjust="spacing" textLength="158" x="108.5" y="289.3545">&#183; 22 Major Arcana  (id 0-21)</text><text fill="#A89AC0" font-family="sans-serif" font-size="13" lengthAdjust="spacing" textLength="157" x="108.5" y="305.7061">&#183; 14 Wands         (id 22-35)</text><text fill="#A89AC0" font-family="sans-serif" font-size="13" lengthAdjust="spacing" textLength="150" x="108.5" y="322.0576">&#183; 14 Cups          (id 36-49)</text><text fill="#A89AC0" font-family="sans-serif" font-size="13" lengthAdjust="spacing" textLength="155" x="108.5" y="338.4092">&#183; 14 Swords        (id 50-63)</text><text fill="#A89AC0" font-family="sans-serif" font-size="13" lengthAdjust="spacing" textLength="158" x="108.5" y="354.7607">&#183; 14 Pentacles     (id 64-77)</text></g><g id="elem_GMN23"><path d="M1042,796.1563 L1042,887.9141 A0,0 0 0 0 1042,887.9141 L1270,887.9141 A0,0 0 0 0 1270,887.9141 L1270,806.1563 L1260,796.1563 L1129.35,796.1563 L1040.47,670.2763 L1121.35,796.1563 L1042,796.1563 A0,0 0 0 0 1042,796.1563 " fill="#13111E" style="stroke:#8B5CF6;stroke-width:0.5;"/><path d="M1260,796.1563 L1260,806.1563 L1270,806.1563 L1260,796.1563 " fill="#13111E" style="stroke:#8B5CF6;stroke-width:0.5;"/><text fill="#C9A84C" font-family="sans-serif" font-size="13" font-weight="bold" lengthAdjust="spacing" textLength="114" x="1048" y="814.6514">Reading Lifecycle</text><text fill="#A89AC0" font-family="sans-serif" font-size="13" lengthAdjust="spacing" textLength="207" x="1048" y="831.0029">1. User selects category + question</text><text fill="#A89AC0" font-family="sans-serif" font-size="13" lengthAdjust="spacing" textLength="196" x="1048" y="847.3545">2. 3 cards drawn &#8594; reading_cards</text><text fill="#A89AC0" font-family="sans-serif" font-size="13" lengthAdjust="spacing" textLength="166" x="1048" y="863.7061">3. Interpretation generated &#8594;</text><text fill="#A89AC0" font-family="sans-serif" font-size="13" lengthAdjust="spacing" textLength="131" x="1060" y="880.0576">reading_interpretations</text></g><g id="elem_GMN26"><path d="M703,971.1563 L703,1046.5625 A0,0 0 0 0 703,1046.5625 L939,1046.5625 A0,0 0 0 0 939,1046.5625 L939,981.1563 L929,971.1563 L825,971.1563 L821,910.5363 L817,971.1563 L703,971.1563 A0,0 0 0 0 703,971.1563 " fill="#13111E" style="stroke:#8B5CF6;stroke-width:0.5;"/><path d="M929,971.1563 L929,981.1563 L939,981.1563 L929,971.1563 " fill="#13111E" style="stroke:#8B5CF6;stroke-width:0.5;"/><text fill="#8B5CF6" font-family="sans-serif" font-size="13" font-weight="bold" lengthAdjust="spacing" textLength="66" x="709" y="989.6514">AI Content</text><text fill="#A89AC0" font-family="sans-serif" font-size="13" lengthAdjust="spacing" textLength="215" x="709" y="1006.0029">Generated by generateInterpretation()</text><text fill="#A89AC0" font-family="sans-serif" font-size="13" lengthAdjust="spacing" textLength="183" x="709" y="1022.3545">based on all 3 cards + category</text><text fill="#A89AC0" font-family="sans-serif" font-size="13" lengthAdjust="spacing" textLength="103" x="709" y="1038.7061">+ user's question.</text></g><!--link users to readings--><g id="link_users_readings"><path codeLine="146" d="M1111.06,394.8362 C1086.8,434.0463 1068.4376,463.7173 1045.4876,500.8273 " fill="none" id="users-to-readings" style="stroke:#8B5CF6;stroke-width:1.0;"/><line style="stroke:#8B5CF6;stroke-width:1.0;" x1="1040.2278" x2="1041.123" y1="509.3323" y2="519.2921"/><line style="stroke:#8B5CF6;stroke-width:1.0;" x1="1040.2278" x2="1030.917" y1="509.3323" y2="512.9804"/><line style="stroke:#8B5CF6;stroke-width:1.0;" x1="1040.2278" x2="1036.02" y1="509.3323" y2="516.1363"/><ellipse cx="1043.3837" cy="504.2293" fill="none" rx="4" ry="4" style="stroke:#8B5CF6;stroke-width:1.0;"/><text fill="#000000" font-family="sans-serif" font-size="13" lengthAdjust="spacing" textLength="39" x="1080" y="456.6514">makes</text><text fill="#000000" font-family="sans-serif" font-size="13" lengthAdjust="spacing" textLength="7" x="1099.548" y="415.8894">1</text><text fill="#000000" font-family="sans-serif" font-size="13" lengthAdjust="spacing" textLength="20" x="1019.6642" y="505.2964">0..*</text></g><!--link categories to readings--><g id="link_categories_readings"><path codeLine="147" d="M811.11,412.4163 C845.41,447.0762 869.7689,471.6818 901.1089,503.3518 " fill="none" id="categories-to-readings" style="stroke:#8B5CF6;stroke-width:1.0;"/><line style="stroke:#8B5CF6;stroke-width:1.0;" x1="908.1428" x2="918.0348" y1="510.4598" y2="511.9259"/><line style="stroke:#8B5CF6;stroke-width:1.0;" x1="908.1428" x2="909.5052" y1="510.4598" y2="520.3666"/><line style="stroke:#8B5CF6;stroke-width:1.0;" x1="908.1428" x2="913.77" y1="510.4598" y2="516.1463"/><ellipse cx="903.9225" cy="506.195" fill="none" rx="4" ry="4" style="stroke:#8B5CF6;stroke-width:1.0;"/><text fill="#000000" font-family="sans-serif" font-size="13" lengthAdjust="spacing" textLength="67" x="855" y="456.6514">categorises</text><text fill="#000000" font-family="sans-serif" font-size="13" lengthAdjust="spacing" textLength="7" x="810.9397" y="433.6238">1</text><text fill="#000000" font-family="sans-serif" font-size="13" lengthAdjust="spacing" textLength="20" x="885.3802" y="505.3074">0..*</text></g><!--link categories to category_questions--><g id="link_categories_category_questions"><path codeLine="148" d="M659.71,412.4163 C646.85,447.0762 639.2212,467.6003 627.4712,499.2703 " fill="none" id="categories-to-category_questions" style="stroke:#8B5CF6;stroke-width:1.0;"/><line style="stroke:#8B5CF6;stroke-width:1.0;" x1="623.9928" x2="626.8353" y1="508.6458" y2="518.2333"/><line style="stroke:#8B5CF6;stroke-width:1.0;" x1="623.9928" x2="615.5847" y1="508.6458" y2="514.0592"/><line style="stroke:#8B5CF6;stroke-width:1.0;" x1="623.9928" x2="621.21" y1="508.6458" y2="516.1463"/><ellipse cx="626.0798" cy="503.0205" fill="none" rx="4" ry="4" style="stroke:#8B5CF6;stroke-width:1.0;"/><text fill="#000000" font-family="sans-serif" font-size="13" lengthAdjust="spacing" textLength="85" x="648" y="456.6514">has suggested</text><text fill="#000000" font-family="sans-serif" font-size="13" lengthAdjust="spacing" textLength="7" x="649.8406" y="433.6238">1</text><text fill="#000000" font-family="sans-serif" font-size="13" lengthAdjust="spacing" textLength="20" x="603.0025" y="505.3074">1..*</text></g><!--link readings to reading_cards--><g id="link_readings_reading_cards"><path codeLine="149" d="M846.44,670.2063 C827.95,679.2963 809.14,688.1763 791,696.1563 C725.43,725.0063 659.6616,750.4012 594.3016,774.0812 " fill="none" id="readings-to-reading_cards" style="stroke:#8B5CF6;stroke-width:1.0;"/><line style="stroke:#8B5CF6;stroke-width:1.0;" x1="591.9033" x2="589.1782" y1="779.2045" y2="771.6829"/><line style="stroke:#8B5CF6;stroke-width:1.0;" x1="594.7239" x2="591.9988" y1="778.1826" y2="770.661"/><line style="stroke:#8B5CF6;stroke-width:1.0;" x1="594.3016" x2="586.78" y1="774.0812" y2="776.8063"/><text fill="#000000" font-family="sans-serif" font-size="13" lengthAdjust="spacing" textLength="80" x="719" y="740.6514">draws exactly</text><text fill="#000000" font-family="sans-serif" font-size="13" lengthAdjust="spacing" textLength="7" x="826.4315" y="691.3071">1</text><text fill="#000000" font-family="sans-serif" font-size="13" lengthAdjust="spacing" textLength="7" x="594.2909" y="771.4421">3</text></g><!--link tarot_cards to reading_cards--><g id="link_tarot_cards_reading_cards"><path codeLine="150" d="M277.28,696.4063 C299.08,722.5463 310.4499,736.184 330.3699,760.064 " fill="none" id="tarot_cards-to-reading_cards" style="stroke:#8B5CF6;stroke-width:1.0;"/><line style="stroke:#8B5CF6;stroke-width:1.0;" x1="336.7755" x2="346.5074" y1="767.743" y2="770.0429"/><line style="stroke:#8B5CF6;stroke-width:1.0;" x1="336.7755" x2="337.2926" y1="767.743" y2="777.7296"/><line style="stroke:#8B5CF6;stroke-width:1.0;" x1="336.7755" x2="341.9" y1="767.743" y2="773.8863"/><ellipse cx="332.9321" cy="763.1356" fill="none" rx="4" ry="4" style="stroke:#8B5CF6;stroke-width:1.0;"/><text fill="#000000" font-family="sans-serif" font-size="13" lengthAdjust="spacing" textLength="48" x="315" y="740.6514">drawn in</text><text fill="#000000" font-family="sans-serif" font-size="13" lengthAdjust="spacing" textLength="7" x="276.2857" y="718.0664">1</text><text fill="#000000" font-family="sans-serif" font-size="13" lengthAdjust="spacing" textLength="20" x="315.0834" y="763.5317">0..*</text></g><!--link readings to reading_interpretations--><g id="link_readings_reading_interpretations"><path codeLine="151" d="M937.22,670.2763 C914.66,703.4463 896.8879,729.5946 875.0679,761.6646 " fill="none" id="readings-to-reading_interpretations" style="stroke:#8B5CF6;stroke-width:1.0;"/><line style="stroke:#8B5CF6;stroke-width:1.0;" x1="872.8178" x2="866.63" y1="764.9717" y2="774.0663"/><ellipse cx="872.8178" cy="764.9717" fill="none" rx="4" ry="4" style="stroke:#8B5CF6;stroke-width:1.0;"/><line style="stroke:#8B5CF6;stroke-width:1.0;" x1="872.1872" x2="865.573" y1="773.0093" y2="768.509"/><text fill="#000000" font-family="sans-serif" font-size="13" lengthAdjust="spacing" textLength="21" x="896" y="740.6514">has</text><text fill="#000000" font-family="sans-serif" font-size="13" lengthAdjust="spacing" textLength="7" x="925.2966" y="691.3833">1</text><text fill="#000000" font-family="sans-serif" font-size="13" lengthAdjust="spacing" textLength="22" x="848.4177" y="763.2557">0..1</text></g><!--link users to admin_sessions--><g id="link_users_admin_sessions"><path codeLine="152" d="M1226.62,394.8362 C1252.68,437.1962 1273.458,470.9853 1297.218,509.6053 " fill="none" id="users-to-admin_sessions" style="stroke:#8B5CF6;stroke-width:1.0;"/><line style="stroke:#8B5CF6;stroke-width:1.0;" x1="1302.458" x2="1311.7603" y1="518.1225" y2="521.7923"/><line style="stroke:#8B5CF6;stroke-width:1.0;" x1="1302.458" x2="1301.5397" y1="518.1225" y2="528.0802"/><line style="stroke:#8B5CF6;stroke-width:1.0;" x1="1302.458" x2="1306.65" y1="518.1225" y2="524.9363"/><ellipse cx="1299.314" cy="513.0122" fill="none" rx="4" ry="4" style="stroke:#8B5CF6;stroke-width:1.0;"/><text fill="#000000" font-family="sans-serif" font-size="13" lengthAdjust="spacing" textLength="35" x="1264" y="456.6514">opens</text><text fill="#000000" font-family="sans-serif" font-size="13" lengthAdjust="spacing" textLength="7" x="1223.5944" y="415.8894">1</text><text fill="#000000" font-family="sans-serif" font-size="13" lengthAdjust="spacing" textLength="20" x="1281.0336" y="514.1115">0..*</text></g><!--SRC=[rLbBSzis4BxhLsoKWqH7KlJmUnJFC1ALQ6BBhXxfQpeQY8GbrXIX4c1ijSbCJprtEksjv_w5tljJyakwu9kKPATfEsKr7ajSx2u-0jyk5i0ZWrwRDeMn-lnSAzjaIIjWKAuhe5k4Sv0I81oAKbY4TXlAumeyxfoen_iT1SxE2ey23rUlodSAjDspk_PJDnRtVB4fnMOi7boEfuF9-Rbil8kbAF60I2byAH-_AXJuZMclY4EM0QRl2e2VvqI_cJlCjOqEivW3Z-kzUg_HyTkOOr0daFjOFRdgEEms41y_F-Zq3ZrnZzaYaFRgsc6t5Ka7ylL7TCueJFgHT6H-Iw7Hz9vVKe9TRO1fg8tzLZsXaUWZ0IXk6ucrHM76BCD7AeHZpbn14tRT_Sw1Ub9ubnmHBgX3cLYlQ6S3GrDjz0xgEvIJ8nGCHKBJPeBk6kT6gz5eQ9lZl7r0rUCJjLENe8Kfy0tRkfIV1eDmrkOubgVD-jdxNt-37i5UsJLypbo7m_llVuOk4MH6ECw1lg1B0cLjs5NQJwNHMVkfv-giK2Z1-rz-pCaVWe79I1kEyeNAZs-NKuTNeEXz5vLWXf_8s3KD1HAVKvXC-jsafDs-UbK1uWg6GIy5rQht5KKopezfAO7rQtNOUQaEoys30yMtdWpwdqoqYjJtuZpm4fclCBHlaK_ATlFGh08BmXVK2Ct3Z66mcH9XxwfZBOtT2AWrCnsno7Pj4NlkaZdrkjO6aujoIHkKAgNNVVptnSkIudcWryIr1CYch0EJJucnD6tFmVFBotDD7IGx3qolYSLfrbPtA68pfaGefp3kNsYZiNfnDVuYOskpsxAIjNLNndssShAglWvQlijVe7HmdbvS3llQ2A1iCNRZhk0fS4eDQbHa4WB9r2erJ4m35bNo65CwZkwSEIQLWHK_F11T8S5RTIKHNRGshq79OczeQKUGMMH6hIcrKr5oM5UsQRqnFqJhsyNzMgRER2KBUry9kUtQg61GuEibBbvPWiggmKUBncFji_6MPW_cxcOFtzPceklK5bDl5L1YR2T1nbZGE_1NY0mepXmnzLOkj1fTgEVd_S4un-7n-HGJvsZSlnp8CE7kV4vn9JVW6nU_JMPpM5470kgjynmawsc4EGwMXF0ZbgHqd62r6NaDpRS5M-yLlF_X9uZ3jMOQMPg4g2H_jz4lQaS2tzkE3DxM_h-XuLWT8kQEEknA_XqTux0v1awWdwTbmXP4c7ekYIU8mp15-82BYQS7g1REHxhwgLUFZdOaPhbHYZ9TIBZZR3BrjCA4TxzMcFTsQd7N555YzgkM9VcQELYpt1BRuFYjkolvvTLLyiSAyoNHBSfBMLzUzbOUIFBP25bIOflsV5U0XCqxuYDiZiCZXzmVQcgtFtWXYK-9lW0irWm4ZTpd76CxbvmFC4h2Xp__YSGgIx5fqdIRNP1OlGr6d5F_ZRIiX4L16e3ikSI1wC8bLhH4_kMA_s_LwFdbSPJ5MtuI1yCXjxPNFmHKoJEZepoUUludk1qwZApluNOOKnbwEqOcE3QNaC11OXNQmkyLusR4Rv-Qk3KMCdixb6C2nr_Nhd0TccLfQBbHLFYzrvz9FvN6iy1FfVdCzvDlnY9-RNWrrCPgM06h_UgSsjIH8OcpmJ7qSirQqnRKmK6NLP9V-Uve-G-PN07_V6RZT88XH5l4Mx2qetWUbiIvCHZc4a7ln4QXWCK3xaUHb8cqVn2bVRKFs2RNKxbm61zwGf97rghTY_vWEj96eu2ithaGhB3Mn-L8xbWv1ulbCyrwMAT1QIDvcXRynqL4V2AncXB3mC3do8V-G1j_85rIvuNqRcMYY_y5gORQkP_yNlQlSdQkNF0c2TAVOgE8Kyw-WsAzLjihHda6DZ-dK5oI6ygBXRZe-rX7eGV-iBk6vsxp02BfRa4uH8SjnSAslds7Rzz2iLMKpwcwP0EVhBKuq3kiJQrriP0e0nvwuNiSsc3Qzu5ZRprVZTXNPj69txRuGPEPpWbPI0otcEWeTo64sK7BMUXuTso2hUIrX3VmcA0ojsDxUweh5hZ-chetMNjxqQKNm5LmOG8cXvdkh5UYwb-DrB2nupeEsbbhu88vk3xZ8cGndLWZVCID3wgK3Vf6gS6LmmnNbzwnO7HN_dMRxBPMeBRXtGGMKbWJlDs6UEGT1i68OgVo-Yw5EJmyGb-u7fwYv8_VeTc42tbm0QgZ4viWCjE0UhNPKFpsnZvyAWyq8fx9zcQpsZg85JhkAi55gT0whEwVn0eZxmmagN1GhnwsOeMhy6maKZZShnuTATbHc34Xs58EH1XqsqPX69mJd9lNL5-ZszGmD6emmHa7JYsg2nub8bnPmrI4MiqQfBTfYPej6lzM3VgfW8Qu9aDzRz7R5VeFljg6GVoc_cslP6WVEdwHc7h55n6AsJg2b4PQbeClwMO0mYQM5RtkasX42hBQ2FRquT0aYFad]--></g></svg>